<?xml version="1.0" standalone="no"?><!DOCTYPE svg PUBLIC "-//W3C//DTD SVG 1.1//EN" "http://www.w3.org/Graphics/SVG/1.1/DTD/svg11.dtd"><svg t="1611137266349" class="icon" viewBox="0 0 1024 1024" version="1.1" xmlns="http://www.w3.org/2000/svg" p-id="3110" xmlns:xlink="http://www.w3.org/1999/xlink" width="200" height="200"><defs><style type="text/css"></style></defs><path d="M239.616 282.624c-7.68 0-15.36-4.096-18.944-11.776-5.12-10.24-0.512-23.04 9.728-28.16l326.656-158.72c10.24-5.12 23.04-0.512 28.16 9.728s0.512 23.04-9.728 28.16l-326.656 158.72c-3.072 1.536-6.144 2.048-9.216 2.048z" fill="#666666" p-id="3111"></path><path d="M805.888 908.288H207.872c-57.856 0-104.96-47.104-104.96-104.96V360.96c0-57.856 47.104-104.96 104.96-104.96h598.016c57.856 0 104.96 47.104 104.96 104.96v442.368c0 57.856-47.104 104.96-104.96 104.96zM207.872 297.984c-34.816 0-62.976 28.16-62.976 62.976v442.368c0 34.816 28.16 62.976 62.976 62.976h598.016c34.816 0 62.976-28.16 62.976-62.976V360.96c0-34.816-28.16-62.976-62.976-62.976H207.872z" fill="#666666" p-id="3112"></path><path d="M350.72 711.168c-71.168 0-128.512-57.856-128.512-128.512s57.856-128.512 128.512-128.512 128.512 57.856 128.512 128.512-57.856 128.512-128.512 128.512z m0-215.552c-47.616 0-86.528 38.912-86.528 86.528 0 47.616 38.912 86.528 86.528 86.528s86.528-38.912 86.528-86.528c0-47.616-38.912-86.528-86.528-86.528z" fill="#666666" p-id="3113"></path><path d="M547.84 478.72m-20.992 0a20.992 20.992 0 1 0 41.984 0 20.992 20.992 0 1 0-41.984 0Z" fill="#666666" p-id="3114"></path><path d="M770.048 499.712h-167.424c-11.776 0-20.992-9.216-20.992-20.992s9.216-20.992 20.992-20.992h167.424c11.776 0 20.992 9.216 20.992 20.992s-9.216 20.992-20.992 20.992z" fill="#666666" p-id="3115"></path><path d="M547.84 686.08m-20.992 0a20.992 20.992 0 1 0 41.984 0 20.992 20.992 0 1 0-41.984 0Z" fill="#666666" p-id="3116"></path><path d="M770.048 707.072h-167.424c-11.776 0-20.992-9.216-20.992-20.992s9.216-20.992 20.992-20.992h167.424c11.776 0 20.992 9.216 20.992 20.992s-9.216 20.992-20.992 20.992z" fill="#666666" p-id="3117"></path></svg>