<?xml version="1.0" standalone="no"?><!DOCTYPE svg PUBLIC "-//W3C//DTD SVG 1.1//EN" "http://www.w3.org/Graphics/SVG/1.1/DTD/svg11.dtd"><svg t="1611059539363" class="icon" viewBox="0 0 1024 1024" version="1.1" xmlns="http://www.w3.org/2000/svg" p-id="4511" xmlns:xlink="http://www.w3.org/1999/xlink" width="200" height="200"><defs><style type="text/css"></style></defs><path d="M441.390545 538.833455A150.830545 150.830545 0 0 1 395.636364 430.545455c0-83.409455 67.863273-151.272727 151.272727-151.272728s151.272727 67.863273 151.272727 151.272728a150.830545 150.830545 0 0 1-45.754182 108.288C721.221818 576.372364 768 649.378909 768 733.090909a34.909091 34.909091 0 0 1-69.818182 0c0-83.409455-67.863273-151.272727-151.272727-151.272727a151.458909 151.458909 0 0 0-151.272727 151.272727 34.909091 34.909091 0 0 1-69.818182 0c0-83.712 46.778182-156.718545 115.572363-194.257454zM221.090909 558.545455h-139.636364a34.909091 34.909091 0 0 1 0-69.818182h139.636364a34.909091 34.909091 0 0 1 0 69.818182z m0-151.272728h-139.636364a34.909091 34.909091 0 0 1 0-69.818182h139.636364a34.909091 34.909091 0 0 1 0 69.818182z m0 302.545455h-139.636364a34.909091 34.909091 0 0 1 0-69.818182h139.636364a34.909091 34.909091 0 0 1 0 69.818182zM853.410909 1000.727273H240.407273A124.183273 124.183273 0 0 1 116.363636 876.683636V791.272727a34.909091 34.909091 0 0 1 69.818182 0v85.410909A54.272 54.272 0 0 0 240.407273 930.909091h613.003636A54.272 54.272 0 0 0 907.636364 876.683636V170.589091A54.272 54.272 0 0 0 853.410909 116.363636H240.407273A54.272 54.272 0 0 0 186.181818 170.589091V256a34.909091 34.909091 0 0 1-69.818182 0V170.589091A124.183273 124.183273 0 0 1 240.407273 46.545455h613.003636A124.183273 124.183273 0 0 1 977.454545 170.589091v706.094545A124.183273 124.183273 0 0 1 853.410909 1000.727273zM546.909091 349.090909c-44.916364 0-81.454545 36.538182-81.454546 81.454546s36.538182 81.454545 81.454546 81.454545 81.454545-36.538182 81.454545-81.454545-36.538182-81.454545-81.454545-81.454546z" fill="#797979" p-id="4512"></path></svg>