<?xml version="1.0" standalone="no"?><!DOCTYPE svg PUBLIC "-//W3C//DTD SVG 1.1//EN" "http://www.w3.org/Graphics/SVG/1.1/DTD/svg11.dtd"><svg t="1610883668940" class="icon" viewBox="0 0 1024 1024" version="1.1" xmlns="http://www.w3.org/2000/svg" p-id="4513" xmlns:xlink="http://www.w3.org/1999/xlink" width="200" height="200"><defs><style type="text/css"></style></defs><path d="M827 201H197c-50.729 0-92 41.271-92 92v350c0 50.729 41.271 92 92 92h630c50.729 0 92-41.271 92-92V293c0-50.729-41.271-92-92-92z m36 442c0 19.851-16.149 36-36 36H197c-19.851 0-36-16.149-36-36V293c0-19.851 16.149-36 36-36h630c19.851 0 36 16.149 36 36v350z" p-id="4514"></path><path d="M597.979 438.605l-137.886-79.667c-10.483-6.058-23.512-6.063-34-0.013-10.489 6.051-17.007 17.332-17.011 29.44l-0.051 159.246v0.003c-0.004 12.108 6.506 23.393 16.991 29.451a34.001 34.001 0 0 0 17.01 4.546c5.875 0 11.75-1.513 16.99-4.536l137.938-79.58c10.489-6.051 17.007-17.332 17.011-29.441 0.002-12.109-6.509-23.394-16.992-29.449z m-132.936 70.921l0.026-83.038 71.899 41.542-71.925 41.496zM889 801H129c-15.464 0-28 12.536-28 28s12.536 28 28 28h760c15.464 0 28-12.536 28-28s-12.536-28-28-28z" p-id="4515"></path></svg>